<svg xmlns="http://www.w3.org/2000/svg" viewBox="0 0 118.78 110"><defs><style>.cls-1{fill:#e65525}.cls-2{fill:#532d6d}.cls-3{fill:#ffc20e}.cls-4{fill:#e75300}</style></defs><title>logo</title><g id="Layer_2" data-name="Layer 2"><g id="Layer_1-2" data-name="Layer 1"><path class="cls-1" d="M19.68 76.54l4-.94a20.35 20.35 0 0 1 .32 3.69v3c0 .47-.06 1.09-.06 1.27a6.61 6.61 0 0 1 4.28-1.62c1.86 0 3.45.89 3.92 2.15a6.32 6.32 0 0 1 .38 2.8v10.58h-3.87V87.31c0-1.51-.41-2.07-1.53-2.07a5.23 5.23 0 0 0-3.12 1.4v10.83h-4V80a16 16 0 0 0-.3-3.45m26.89 16.9l1.53 2.36a8.67 8.67 0 0 1-5.69 2.1c-4.34 0-7.14-3.07-7.14-7.82 0-2.71.56-4.51 1.89-6a5.94 5.94 0 0 1 4.75-2 6.19 6.19 0 0 1 4.37 1.59c1.39 1.42 2 3.45 2 6.61v.91h-8.73v.12c0 2.33 1.15 3.66 3.19 3.66a5.9 5.9 0 0 0 3.84-1.51m-7-5.16h4.6v-.18a3.89 3.89 0 0 0-.47-2.27A1.91 1.91 0 0 0 42 85c-1.51 0-2.36 1.18-2.36 3.28zm10.85-4.15a11.27 11.27 0 0 1 2.45-1.24A10.23 10.23 0 0 1 57 82c2.54 0 4.28.94 4.87 2.63a7.67 7.67 0 0 1 .27 2.72l-.09 5.07v.27c0 1.62.27 2.24 1.42 3.1l-2.1 2.42a4.23 4.23 0 0 1-2.12-1.83 6.47 6.47 0 0 1-.91.8 5.22 5.22 0 0 1-3 .83c-3.36 0-5.19-1.71-5.19-4.72 0-3.54 2.45-5.19 7.26-5.19h.89v-.62c0-1.68-.32-2.24-1.77-2.24a8.32 8.32 0 0 0-4.4 1.76zm7.76 6.7H58c-2.74 0-3.69.5-3.69 2.3a1.79 1.79 0 0 0 1.74 2 2.86 2.86 0 0 0 2.07-1zm11.36-15.23a22.53 22.53 0 0 1 .21 3.93v11.77c0 2.6 0 3 .27 3.36a.9.9 0 0 0 .8.41 1.31 1.31 0 0 0 .44-.06l.71 2.37a6.62 6.62 0 0 1-2.36.41 3.55 3.55 0 0 1-3.51-2.07c-.3-.77-.35-1.24-.35-3.39V81.09a38.87 38.87 0 0 0-.21-4.54zm11.75 6.7l-1 2.63h-2.54v7.7c0 1.92.35 2.42 1.71 2.42a5.19 5.19 0 0 0 1.42-.3l.5 2.36a8.29 8.29 0 0 1-3.22.68c-2 0-3.63-.88-4.07-2.21a5.53 5.53 0 0 1-.27-2.33V85h-1.5v-2.61h1.5a26.67 26.67 0 0 1 .15-3.6l4-1a44.45 44.45 0 0 0-.24 4.54zm1.09-5.79l4-.94a20.35 20.35 0 0 1 .27 3.69v3c0 .47-.06 1.09-.06 1.27a6.61 6.61 0 0 1 4.28-1.62c1.86 0 3.45.89 3.92 2.15a6.32 6.32 0 0 1 .38 2.8v10.58h-3.82V87.31c0-1.51-.41-2.07-1.53-2.07a5.23 5.23 0 0 0-3.13 1.39v10.84h-4V80a16 16 0 0 0-.3-3.45m14.8 6.07l4-.47 2.63 8.79c.27.91.8 3.13.8 3.13s.3-1.68.47-2.42c.24-.94.3-1.09.59-2.09l2.29-7.17h4.16l-5.47 15.31c-1 2.92-1.8 4.19-2.89 5a8 8 0 0 1-3.66 1.39l-1.36-2.6a8.85 8.85 0 0 0 2.45-1 4.56 4.56 0 0 0 1.12-1.24 9 9 0 0 0 .86-1.77h-1c-.24-.71-.35-1-.62-1.77s-.77-2.42-.8-2.48zM0 56.29l4.36-.49 1.38 6.4c.43 1.93 1 5.21 1 5.21a46.06 46.06 0 0 1 1.16-5.84L9.48 56h4.13L15 61.48c.75 3.12 1.25 5.94 1.25 5.94.1-.72.46-3.34.92-5.48L18.39 56h4.52l-4.78 16.72h-4L12.59 67c-.33-1.34-.72-3-1-4.07-.13-.79-.16-1-.26-1.67a21.36 21.36 0 0 1-.33 2.12c-.62 2.79-1.41 5.77-1.44 5.9l-.85 3.44H4.59zm30-.68a7 7 0 0 1 5.7 2.52 8.72 8.72 0 0 1 1.93 6.13 9.11 9.11 0 0 1-2.1 6.49A6.86 6.86 0 0 1 30 73.08c-4.56 0-7.54-3.41-7.54-8.69s3-8.79 7.54-8.79m.07 3.25a2.37 2.37 0 0 0-2.26 1.71 12 12 0 0 0-.46 3.74 11.86 11.86 0 0 0 .56 4.23 2.43 2.43 0 0 0 2.23 1.38c1.9 0 2.72-1.71 2.72-5.67 0-2.26-.3-3.74-.89-4.49a2.35 2.35 0 0 0-1.9-.89m8.72-2.27l3.93-1a5.4 5.4 0 0 1 .69 2.39 7.6 7.6 0 0 1 2.49-2.13 3.91 3.91 0 0 1 1.44-.26 3.4 3.4 0 0 1 1.66.31l-1.21 3.87a2.47 2.47 0 0 0-1.28-.33 3.5 3.5 0 0 0-2.69 1.41v11.87h-4.4V61.51a15.22 15.22 0 0 0-.62-4.92m10.39-7.15l4.43-1.08a39.92 39.92 0 0 1 .26 5.44v18.92h-4.39V53.8a26.1 26.1 0 0 0-.3-4.36m9.08 6.43h5.28L58.21 63l6.59 9.77h-5.18L54 63.21z"/><path class="cls-2" d="M22.74 102.07h1.68l2.44 7.77h-1.67l-.54-1.84h-2.28l-.55 1.84H20.2zm0 4.64h1.52s-.26-.81-.42-1.56c-.08-.36-.31-1.37-.31-1.37l-.37 1.49c-.15.56-.25.92-.41 1.44m6.31-4.62h1.59v5.09a1.68 1.68 0 0 0 .13.93 1.1 1.1 0 0 0 1.06.54 1 1 0 0 0 1.18-.9 4.84 4.84 0 0 0 0-.69v-5h1.58v5.22a3.14 3.14 0 0 1-.12 1.22 2.53 2.53 0 0 1-2.6 1.5 2.79 2.79 0 0 1-2.49-1 2.3 2.3 0 0 1-.33-1.46zm14.57.54l-.74 1.12a3.33 3.33 0 0 0-1.81-.59c-.63 0-1.08.37-1.08.89s.21.6.86.78l.94.26a2.33 2.33 0 0 1 2 2.31c0 1.57-1.27 2.61-3.2 2.61a5.54 5.54 0 0 1-2.64-.7l.58-1.21a4.39 4.39 0 0 0 2.13.62c.89 0 1.36-.37 1.36-1.06 0-.5-.32-.82-1-1l-.86-.23a2.34 2.34 0 0 1-1.53-1 2.23 2.23 0 0 1-.32-1.18 2.49 2.49 0 0 1 2.78-2.4 4.55 4.55 0 0 1 2.59.78m3.13-.54h5.58l-.25 1.29h-1.86v6.45h-1.58v-6.45h-1.89v-1.29zm8.75-.01h2.89a2.15 2.15 0 0 1 2.27 2.27A2 2 0 0 1 59 106.5a1.47 1.47 0 0 1 .32.32c.45.56 1.86 3 1.86 3h-1.84c-.3-.51-.42-.72-.72-1.27-.77-1.39-1-1.76-1.28-1.89a.64.64 0 0 0-.25-.07v3.23h-1.52zm1.54 1.26v2.1h.52c.67 0 1-.07 1.17-.26a1.06 1.06 0 0 0 .3-.78.91.91 0 0 0-.56-.95 2.79 2.79 0 0 0-.88-.11zm9.09-1.27h1.68l2.44 7.77h-1.67l-.54-1.84h-2.28l-.55 1.84h-1.62zm0 4.64h1.52s-.26-.81-.42-1.56c-.08-.36-.31-1.37-.31-1.37l-.37 1.49c-.15.56-.25.92-.41 1.44m7.34-4.62h1.59v6.45h2.78l-.28 1.29h-4.09v-7.74zm7.9 0h1.63v7.74h-1.63zm7.36-.02h1.68l2.44 7.77h-1.67l-.55-1.84h-2.27l-.55 1.84h-1.63zm0 4.64h1.52s-.26-.81-.42-1.56c-.08-.36-.31-1.37-.31-1.37l-.37 1.49c-.15.56-.25.92-.41 1.44"/><path class="cls-3" d="M104.13 55.55a36.51 36.51 0 0 1-37.21 9 33.16 33.16 0 0 0 46-46.26 36.52 36.52 0 0 1-8.75 37.27"/><path class="cls-4" d="M62 26.58a36.52 36.52 0 0 1 4.94 38 33.16 33.16 0 0 0-41.09-50.69A36.52 36.52 0 0 1 62 26.58"/><path class="cls-2" d="M91.43 35.13a36.52 36.52 0 0 1-24.51 29.41A33.16 33.16 0 0 0 76.23 0a36.52 36.52 0 0 1 15.2 35.13"/></g></g></svg>