<svg xmlns="http://www.w3.org/2000/svg" viewBox="0 0 97.76 90.54"><defs><style>.cls-1{fill:#fff;}</style></defs><title>logo-white</title><g id="Layer_2" data-name="Layer 2"><g id="Layer_1-2" data-name="Layer 1"><path class="cls-1" d="M16.2,63l3.33-.78a16.75,16.75,0,0,1,.22,3v2.48c0,.39,0,.9,0,1a5.44,5.44,0,0,1,3.52-1.34,3.34,3.34,0,0,1,3.23,1.77,5.2,5.2,0,0,1,.32,2.31v8.7H23.58V71.87c0-1.24-.34-1.7-1.26-1.7a4.31,4.31,0,0,0-2.57,1.14v8.91h-3.3V65.84A13.14,13.14,0,0,0,16.2,63"/><path class="cls-1" d="M38.35,76.92l1.26,1.94a7.14,7.14,0,0,1-4.69,1.72c-3.57,0-5.88-2.53-5.88-6.44a6.8,6.8,0,0,1,1.55-4.93,4.89,4.89,0,0,1,3.91-1.68,5.09,5.09,0,0,1,3.59,1.31c1.14,1.17,1.65,2.84,1.65,5.44V75H32.57v.1c0,1.92.95,3,2.62,3a4.86,4.86,0,0,0,3.16-1.24m-5.73-4.25h3.76v-.15A3.2,3.2,0,0,0,36,70.65a1.57,1.57,0,0,0-1.43-.73c-1.24,0-1.94,1-1.94,2.7Z"/><path class="cls-1" d="M41.53,69.27a9.28,9.28,0,0,1,2-1,8.42,8.42,0,0,1,3.4-.73c2.09,0,3.52.78,4,2.16a6.31,6.31,0,0,1,.22,2.23l-.07,4.18v.22a2.54,2.54,0,0,0,1.17,2.55l-1.72,2a3.48,3.48,0,0,1-1.75-1.51A5.33,5.33,0,0,1,48,80a4.29,4.29,0,0,1-2.5.68c-2.77,0-4.27-1.41-4.27-3.89,0-2.91,2-4.27,6-4.27.24,0,.39,0,.73,0V72c0-1.38-.27-1.85-1.46-1.85a6.85,6.85,0,0,0-3.59,1.41Zm6.39,5.51h-.15c-2.26,0-3,.41-3,1.89a1.48,1.48,0,0,0,1.43,1.63,2.36,2.36,0,0,0,1.7-.85Z"/><path class="cls-1" d="M57.26,62.25a18.54,18.54,0,0,1,.17,3.23v9.69c0,2.14,0,2.43.22,2.77a.74.74,0,0,0,.66.34,1.08,1.08,0,0,0,.37,0l.56,1.94a5.45,5.45,0,0,1-1.94.34,2.92,2.92,0,0,1-2.89-1.7A6.74,6.74,0,0,1,54.11,76V66.74A32,32,0,0,0,53.94,63Z"/><path class="cls-1" d="M66.93,67.76l-.83,2.16H64v6.34c0,1.58.29,2,1.41,2A4.27,4.27,0,0,0,66.59,78L67,80a6.82,6.82,0,0,1-2.65.56c-1.65,0-3-.73-3.35-1.82a4.55,4.55,0,0,1-.22-1.92V69.92H59.55V67.81h1.24a22,22,0,0,1,.12-3l3.3-.83A36.59,36.59,0,0,0,64,67.76Z"/><path class="cls-1" d="M67.83,63l3.33-.78a16.75,16.75,0,0,1,.22,3v2.48c0,.39,0,.9,0,1a5.44,5.44,0,0,1,3.52-1.34,3.34,3.34,0,0,1,3.23,1.77,5.2,5.2,0,0,1,.32,2.31v8.7H75.21V71.87c0-1.24-.34-1.7-1.26-1.7a4.31,4.31,0,0,0-2.57,1.14v8.91h-3.3V65.84A13.14,13.14,0,0,0,67.83,63"/><path class="cls-1" d="M80,68l3.33-.39,2.16,7.24c.22.75.66,2.57.66,2.57s.24-1.38.39-2c.19-.78.24-.9.49-1.72l1.87-5.9h3.42L87.81,80.42c-.85,2.4-1.48,3.45-2.38,4.1a6.56,6.56,0,0,1-3,1.14l-1.12-2.14a7.28,7.28,0,0,0,2-.83,3.75,3.75,0,0,0,.92-1,7.44,7.44,0,0,0,.7-1.46h-.83c-.19-.58-.29-.83-.51-1.46s-.63-2-.66-2Z"/><path class="cls-1" d="M0,46.34l3.59-.4,1.13,5.26c.35,1.59.78,4.29.78,4.29a37.91,37.91,0,0,1,1-4.8l1.3-4.59h3.4l1.11,4.51c.62,2.56,1,4.89,1,4.89.08-.59.38-2.75.76-4.51l1.05-4.88h3.72L14.92,59.86H11.6l-1.24-4.75c-.27-1.11-.59-2.43-.78-3.35-.11-.65-.13-.84-.22-1.38A17.58,17.58,0,0,1,9,52.17C8.53,54.46,7.88,56.91,7.85,57l-.7,2.83H3.78Z"/><path class="cls-1" d="M24.72,45.77a5.79,5.79,0,0,1,4.7,2.08,7.18,7.18,0,0,1,1.59,5,7.5,7.5,0,0,1-1.73,5.34,5.65,5.65,0,0,1-4.56,1.92c-3.75,0-6.21-2.81-6.21-7.15s2.48-7.23,6.21-7.23m.05,2.67a2,2,0,0,0-1.86,1.4,9.85,9.85,0,0,0-.38,3.08A9.76,9.76,0,0,0,23,56.4a2,2,0,0,0,1.83,1.13c1.57,0,2.24-1.4,2.24-4.67,0-1.86-.24-3.08-.73-3.7a1.94,1.94,0,0,0-1.57-.73"/><path class="cls-1" d="M31.93,46.58l3.24-.86a4.45,4.45,0,0,1,.57,2,6.26,6.26,0,0,1,2.05-1.75A3.21,3.21,0,0,1,39,45.71a2.8,2.8,0,0,1,1.35.3l-1,3.19a2,2,0,0,0-1.05-.27,2.88,2.88,0,0,0-2.21,1.16v9.77H32.44V50.63a12.53,12.53,0,0,0-.51-4"/><path class="cls-1" d="M40.49,40.69l3.64-.89a32.86,32.86,0,0,1,.22,4.48V59.86H40.73V44.28a21.48,21.48,0,0,0-.24-3.59M48,46h4.34l-4.4,5.83,5.42,8H49.07L44.43,52Z"/><path class="cls-1" d="M18.72,84H20.1l2,6.39H20.74l-.45-1.51H18.42L18,90.4H16.63Zm0,3.82H20s-.21-.67-.35-1.28c-.06-.29-.26-1.13-.26-1.13l-.3,1.23c-.12.46-.2.76-.34,1.18"/><path class="cls-1" d="M23.92,84h1.31v4.19a1.39,1.39,0,0,0,.11.76.91.91,0,0,0,.87.44.86.86,0,0,0,1-.74,4,4,0,0,0,0-.57V84h1.3v4.29a2.58,2.58,0,0,1-.1,1,2.08,2.08,0,0,1-2.16,1.2,2.3,2.3,0,0,1-2-.85,1.9,1.9,0,0,1-.28-1.2Z"/><path class="cls-1" d="M35.91,84.48l-.61.92a2.74,2.74,0,0,0-1.49-.49c-.52,0-.89.3-.89.73s.17.5.71.64l.77.21A1.92,1.92,0,0,1,36,88.39c0,1.29-1,2.15-2.63,2.15A4.56,4.56,0,0,1,31.21,90l.48-1a3.61,3.61,0,0,0,1.75.51c.73,0,1.12-.3,1.12-.87,0-.41-.27-.68-.83-.83L33,87.58a1.93,1.93,0,0,1-1.26-.81,1.84,1.84,0,0,1-.27-1,2,2,0,0,1,2.28-2,3.74,3.74,0,0,1,2.13.64"/><polygon class="cls-1" points="38.53 84.03 43.13 84.03 42.92 85.09 41.4 85.09 41.4 90.4 40.09 90.4 40.09 85.09 38.53 85.09 38.53 84.03"/><path class="cls-1" d="M45.74,84h2.38A1.77,1.77,0,0,1,50,85.9a1.64,1.64,0,0,1-1.42,1.76,1.21,1.21,0,0,1,.27.27c.37.46,1.53,2.48,1.53,2.48H48.85c-.25-.42-.35-.6-.6-1-.63-1.15-.83-1.45-1.05-1.56a.53.53,0,0,0-.2-.05V90.4H45.74Zm1.27,1v1.72h.43c.55,0,.79-.05,1-.21a.87.87,0,0,0,.25-.64.75.75,0,0,0-.46-.78,2.3,2.3,0,0,0-.72-.09Z"/><path class="cls-1" d="M54.49,84h1.38l2,6.39H56.51l-.45-1.51H54.19l-.45,1.51H52.4Zm0,3.82h1.25s-.21-.67-.35-1.28c-.06-.29-.26-1.13-.26-1.13l-.3,1.23c-.12.46-.2.76-.34,1.18"/><polygon class="cls-1" points="60.53 84.03 61.85 84.03 61.85 89.34 64.13 89.34 63.9 90.4 60.53 90.4 60.53 84.03"/><rect class="cls-1" x="67.04" y="84.03" width="1.34" height="6.37"/><path class="cls-1" d="M73.09,84h1.38l2,6.39H75.11l-.45-1.51H72.79l-.45,1.51H71Zm0,3.82h1.25s-.21-.67-.35-1.28c-.06-.29-.26-1.13-.26-1.13l-.3,1.23c-.12.46-.2.76-.34,1.18"/><path class="cls-1" d="M85.71,45.72a30.05,30.05,0,0,1-30.63,7.4A27.29,27.29,0,0,0,92.9,15a30.05,30.05,0,0,1-7.2,30.68"/><path class="cls-1" d="M51,21.88a30.06,30.06,0,0,1,4.07,31.25,27.29,27.29,0,0,0-33.79-41.7A30.06,30.06,0,0,1,51,21.88"/><path class="cls-1" d="M75.26,28.92A30.06,30.06,0,0,1,55.08,53.12,27.29,27.29,0,0,0,62.74,0,30.05,30.05,0,0,1,75.26,28.92"/></g></g></svg>