<svg xmlns="http://www.w3.org/2000/svg" viewBox="0 0 97.76 90.54"><defs><style>.cls-1{fill:#fff}</style></defs><title>logo-white</title><g id="Layer_2" data-name="Layer 2"><g id="Layer_1-2" data-name="Layer 1"><path class="cls-1" d="M16.2 63l3.33-.78a16.75 16.75 0 0 1 .22 3v3.48a5.44 5.44 0 0 1 3.52-1.34 3.34 3.34 0 0 1 3.23 1.77 5.2 5.2 0 0 1 .32 2.31v8.7h-3.24v-8.27c0-1.24-.34-1.7-1.26-1.7a4.31 4.31 0 0 0-2.57 1.14v8.91h-3.3V65.84A13.14 13.14 0 0 0 16.2 63m22.15 13.92l1.26 1.94a7.14 7.14 0 0 1-4.69 1.72c-3.57 0-5.88-2.53-5.88-6.44a6.8 6.8 0 0 1 1.55-4.93 4.89 4.89 0 0 1 3.91-1.68 5.09 5.09 0 0 1 3.59 1.31c1.14 1.17 1.65 2.84 1.65 5.44V75h-7.17v.1c0 1.92.95 3 2.62 3a4.86 4.86 0 0 0 3.16-1.24m-5.73-4.25h3.76v-.15a3.2 3.2 0 0 0-.38-1.81 1.57 1.57 0 0 0-1.43-.73c-1.24 0-1.94 1-1.94 2.7zm8.91-3.34a9.28 9.28 0 0 1 2-1 8.42 8.42 0 0 1 3.4-.73c2.09 0 3.52.78 4 2.16a6.31 6.31 0 0 1 .22 2.23l-.07 4.18v.22a2.54 2.54 0 0 0 1.17 2.55l-1.72 2a3.48 3.48 0 0 1-1.75-1.51A5.33 5.33 0 0 1 48 80a4.29 4.29 0 0 1-2.5.68c-2.77 0-4.27-1.41-4.27-3.89 0-2.91 2-4.27 6-4.27h.73V72c0-1.38-.27-1.85-1.46-1.85a6.85 6.85 0 0 0-3.59 1.41zm6.39 5.51h-.15c-2.26 0-3 .41-3 1.89a1.48 1.48 0 0 0 1.43 1.63 2.36 2.36 0 0 0 1.7-.85zm9.34-12.53a18.54 18.54 0 0 1 .17 3.23v9.69c0 2.14 0 2.43.22 2.77a.74.74 0 0 0 .66.34 1.08 1.08 0 0 0 .37 0l.56 1.94a5.45 5.45 0 0 1-1.94.34 2.92 2.92 0 0 1-2.89-1.7 6.74 6.74 0 0 1-.3-2.86v-9.26a32 32 0 0 0-.17-3.74zm9.67 5.51l-.83 2.16H64v6.34c0 1.58.29 2 1.41 2a4.27 4.27 0 0 0 1.18-.26l.41 2a6.82 6.82 0 0 1-2.65.56c-1.65 0-3-.73-3.35-1.82a4.55 4.55 0 0 1-.22-1.92v-6.9h-1.23v-2.11h1.24a22 22 0 0 1 .12-3l3.3-.83a36.59 36.59 0 0 0-.21 3.78zm.9-4.76l3.33-.78a16.75 16.75 0 0 1 .22 3v3.48a5.44 5.44 0 0 1 3.52-1.34 3.34 3.34 0 0 1 3.23 1.77 5.2 5.2 0 0 1 .32 2.31v8.7h-3.24v-8.27c0-1.24-.34-1.7-1.26-1.7a4.31 4.31 0 0 0-2.57 1.14v8.91h-3.3V65.84a13.14 13.14 0 0 0-.25-2.84M80 68l3.33-.39 2.16 7.24c.22.75.66 2.57.66 2.57s.24-1.38.39-2c.19-.78.24-.9.49-1.72l1.87-5.9h3.42l-4.51 12.62c-.85 2.4-1.48 3.45-2.38 4.1a6.56 6.56 0 0 1-3 1.14l-1.12-2.14a7.28 7.28 0 0 0 2-.83 3.75 3.75 0 0 0 .92-1 7.44 7.44 0 0 0 .7-1.46h-.83c-.19-.58-.29-.83-.51-1.46s-.63-2-.66-2zM0 46.34l3.59-.4 1.13 5.26c.35 1.59.78 4.29.78 4.29a37.91 37.91 0 0 1 1-4.8l1.3-4.59h3.4l1.11 4.51c.62 2.56 1 4.89 1 4.89.08-.59.38-2.75.76-4.51l1.05-4.88h3.72l-3.92 13.75H11.6l-1.24-4.75c-.27-1.11-.59-2.43-.78-3.35-.11-.65-.13-.84-.22-1.38A17.58 17.58 0 0 1 9 52.17c-.47 2.29-1.12 4.74-1.15 4.83l-.7 2.83H3.78zm24.72-.57a5.79 5.79 0 0 1 4.7 2.08 7.18 7.18 0 0 1 1.59 5 7.5 7.5 0 0 1-1.73 5.34 5.65 5.65 0 0 1-4.56 1.92c-3.75 0-6.21-2.81-6.21-7.15s2.48-7.23 6.21-7.23m.05 2.67a2 2 0 0 0-1.86 1.4 9.85 9.85 0 0 0-.38 3.08A9.76 9.76 0 0 0 23 56.4a2 2 0 0 0 1.83 1.13c1.57 0 2.24-1.4 2.24-4.67 0-1.86-.24-3.08-.73-3.7a1.94 1.94 0 0 0-1.57-.73m7.16-1.85l3.24-.86a4.45 4.45 0 0 1 .57 2 6.26 6.26 0 0 1 2.05-1.75 3.21 3.21 0 0 1 1.21-.26 2.8 2.8 0 0 1 1.35.3l-1 3.19a2 2 0 0 0-1.05-.27 2.88 2.88 0 0 0-2.21 1.16v9.77h-3.65v-9.23a12.53 12.53 0 0 0-.51-4m8.56-5.94l3.64-.89a32.86 32.86 0 0 1 .22 4.48v15.58h-3.62V44.28a21.48 21.48 0 0 0-.24-3.59M48 46h4.34l-4.4 5.83 5.42 8h-4.29L44.43 52zM18.72 84h1.38l2 6.39h-1.36l-.45-1.51h-1.87L18 90.4h-1.37zm0 3.82H20s-.21-.67-.35-1.28c-.06-.29-.26-1.13-.26-1.13l-.3 1.23c-.12.46-.2.76-.34 1.18M23.92 84h1.31v4.19a1.39 1.39 0 0 0 .11.76.91.91 0 0 0 .87.44.86.86 0 0 0 1-.74 4 4 0 0 0 0-.57V84h1.3v4.29a2.58 2.58 0 0 1-.1 1 2.08 2.08 0 0 1-2.16 1.2 2.3 2.3 0 0 1-2-.85 1.9 1.9 0 0 1-.28-1.2zm11.99.48l-.61.92a2.74 2.74 0 0 0-1.49-.49c-.52 0-.89.3-.89.73s.17.5.71.64l.77.21a1.92 1.92 0 0 1 1.6 1.9c0 1.29-1 2.15-2.63 2.15a4.56 4.56 0 0 1-2.16-.54l.48-1a3.61 3.61 0 0 0 1.75.51c.73 0 1.12-.3 1.12-.87 0-.41-.27-.68-.83-.83l-.73-.23a1.93 1.93 0 0 1-1.26-.81 1.84 1.84 0 0 1-.27-1 2 2 0 0 1 2.28-2 3.74 3.74 0 0 1 2.13.64m2.65-.38h4.6l-.21 1.06H41.4v5.31h-1.31v-5.31h-1.56v-1.06zm7.21-.03h2.38A1.77 1.77 0 0 1 50 85.9a1.64 1.64 0 0 1-1.42 1.76 1.21 1.21 0 0 1 .27.27c.37.46 1.53 2.48 1.53 2.48h-1.53c-.25-.42-.35-.6-.6-1-.63-1.15-.83-1.45-1.05-1.56a.53.53 0 0 0-.2-.05v2.6h-1.26zm1.27 1v1.72h.43c.55 0 .79-.05 1-.21a.87.87 0 0 0 .25-.64.75.75 0 0 0-.46-.78 2.3 2.3 0 0 0-.72-.09zm7.48-1h1.38l2 6.39h-1.36l-.45-1.51h-1.87l-.45 1.51H52.4zm0 3.82h1.25s-.21-.67-.35-1.28c-.06-.29-.26-1.13-.26-1.13l-.3 1.23c-.12.46-.2.76-.34 1.18m6.04-3.79h1.32v5.31h2.28l-.23 1.06h-3.37v-6.37zm6.51 0h1.34v6.37h-1.34zm6.05-.03h1.38l2 6.39h-1.36l-.45-1.51h-1.87l-.45 1.51H71zm0 3.82h1.25s-.21-.67-.35-1.28c-.06-.29-.26-1.13-.26-1.13l-.3 1.23c-.12.46-.2.76-.34 1.18m12.62-42.1a30.05 30.05 0 0 1-30.63 7.4A27.29 27.29 0 0 0 92.9 15a30.05 30.05 0 0 1-7.2 30.68"/><path class="cls-1" d="M51 21.88a30.06 30.06 0 0 1 4.07 31.25 27.29 27.29 0 0 0-33.79-41.7A30.06 30.06 0 0 1 51 21.88"/><path class="cls-1" d="M75.26 28.92a30.06 30.06 0 0 1-20.18 24.2A27.29 27.29 0 0 0 62.74 0a30.05 30.05 0 0 1 12.52 28.92"/></g></g></svg>