<svg xmlns="http://www.w3.org/2000/svg" viewBox="0 0 65 71.61"><defs><style>.cls-1{fill:#fff;}.cls-2{fill:#ffc700;}</style></defs><title>quote-icon</title><g id="Layer_2" data-name="Layer 2"><g id="Layer_1-2" data-name="Layer 1"><circle class="cls-1" cx="28.81" cy="32.71" r="24.1"/><path class="cls-2" d="M32.5 0a32.49 32.49 0 0 0-18.85 59C11.23 64.12 6.8 67.48 0 67.48c7.61 6.44 20.15 5.22 27.72-2.84A32.5 32.5 0 1 0 32.5 0zm-6.9 41.72c-5 0-8.25-3.26-8.25-9.62 0-8.63 5.15-13.71 15.83-14v4.47c-5.23.45-7.88 1.67-8.63 5.38h3.25c3.26.68 5.07 3.1 5.07 6.89s-2.57 6.88-7.27 6.88zm22.05-14c-5.23.45-7.88 1.67-8.63 5.38h3.26c3.26.68 5.07 3.11 5.07 6.89s-2.57 6.89-7.27 6.89c-3.48 0-6.12-1.59-7.4-4.7a9.66 9.66 0 0 0 3.21-7.38 10.8 10.8 0 0 0-1.65-6c2.49-3.43 6.92-5.38 13.41-5.56z"/></g></g></svg>
